<svg width="24" height="24" viewBox="0 0 24 24" fill="none" xmlns="http://www.w3.org/2000/svg">
<g clip-path="url(#clip0_735_442)">
<path d="M-3.02563 22L5.10032 4.05625H7.63808L15.7897 22H13.0981L5.84371 5.49175H6.86906L-0.385339 22H-3.02563ZM0.434946 17.5141L1.12706 15.4633H11.2268L11.9702 17.5141H0.434946ZM23.5676 20.3594C24.9518 20.3594 26.3446 19.6929 27.7459 18.36L28.1048 18.6932C26.6864 20.5047 24.9945 21.7351 23.0293 22.3845C20.9785 22.3845 19.432 21.7437 18.3895 20.462C17.3642 19.1632 16.8515 17.3773 16.8515 15.1045C16.8515 12.8145 17.4752 10.6954 18.7228 8.74726C19.9874 6.78199 21.6792 5.50884 23.7983 4.9278C25.5243 4.9278 27.2845 5.09015 29.0789 5.41485L29.0532 5.9788C28.6089 5.9788 28.1988 6.0557 27.8228 6.2095C27.3956 7.21777 27.1136 8.39693 26.9769 9.74698H26.336C26.1822 9.06341 26.1053 8.26876 26.1053 7.36303C25.3021 6.9358 24.3366 6.72218 23.2087 6.72218C22.0979 6.72218 21.1751 7.02979 20.4402 7.645C19.6712 8.96088 19.244 10.5587 19.1585 12.4385C19.8934 12.5753 20.8504 12.6436 22.0295 12.6436C23.9264 12.6436 25.0543 12.2762 25.4132 11.5414L25.9259 11.6439C25.7721 12.1908 25.6952 12.8401 25.6952 13.5921C25.6952 14.344 25.7464 15.0959 25.849 15.8479L25.2594 15.9504C25.0031 15.301 24.8322 14.5405 24.7467 13.669C24.0973 13.6177 23.166 13.5921 21.9526 13.5921C20.7564 13.5921 19.8165 13.6348 19.1329 13.7202C19.1842 16.933 19.9446 18.9752 21.4143 19.8468C21.9953 20.1885 22.7131 20.3594 23.5676 20.3594Z" fill="white"/>
</g>
<defs>
<clipPath id="clip0_735_442">
<rect width="24" height="24" fill="white"/>
</clipPath>
</defs>
</svg>
